<svg width="44" height="44" viewBox="0 0 44 44" fill="none" xmlns="http://www.w3.org/2000/svg">
<path d="M1.42875 35.111C-0.380199 36.92 -0.380199 39.8529 1.42875 41.6618C3.23771 43.4708 6.1706 43.4708 7.97955 41.6618L21.1474 28.494L35.111 42.4576C36.92 44.2666 39.8528 44.2666 41.6618 42.4576C43.4708 40.6487 43.4708 37.7158 41.6618 35.9068L27.6982 21.9432L41.7338 7.90751C43.5428 6.09856 43.5428 3.16567 41.7338 1.35672C39.9249 -0.452236 36.992 -0.45224 35.183 1.35671L21.1474 15.3924L7.90751 2.15253C6.09856 0.343578 3.16567 0.343578 1.35672 2.15253C-0.452236 3.96148 -0.45224 6.89437 1.35671 8.70333L14.5966 21.9432L1.42875 35.111Z" fill="white"/>
</svg>
