<svg width="57" height="43" viewBox="0 0 57 43" fill="none" xmlns="http://www.w3.org/2000/svg">
<path d="M0 4.63211C0 2.07387 2.07387 0 4.63211 0H52.3679C54.9261 0 57 2.07387 57 4.63211C57 7.19036 54.9261 9.26423 52.3679 9.26423H4.63211C2.07387 9.26423 0 7.19036 0 4.63211ZM0 21.5C0 18.9418 2.07387 16.8679 4.63211 16.8679H52.3679C54.9261 16.8679 57 18.9418 57 21.5C57 24.0582 54.9261 26.1321 52.3679 26.1321H4.63211C2.07387 26.1321 0 24.0582 0 21.5ZM0 38.3679C0 35.8096 2.07387 33.7358 4.63212 33.7358H52.3679C54.9261 33.7358 57 35.8096 57 38.3679C57 40.9261 54.9261 43 52.3679 43H4.63211C2.07387 43 0 40.9261 0 38.3679Z" fill="white"/>
</svg>
